<svg height="512" viewBox="0 0 60 60" width="512" xmlns="http://www.w3.org/2000/svg"><g id="Page-1" fill="none" fill-rule="evenodd"><g id="028---Mobile-Browser-Settings" fill="rgb(0,0,0)" fill-rule="nonzero"><path id="Shape" d="m56 10h-22v-6c0-2.209139-1.790861-4-4-4h-26c-2.209139 0-4 1.790861-4 4v52c0 2.209139 1.790861 4 4 4h26c2.209139 0 4-1.790861 4-4v-8h22c2.209139 0 4-1.790861 4-4v-30c0-2.209139-1.790861-4-4-4zm2 4v4h-48v-4c0-1.1045695.8954305-2 2-2h44c1.1045695 0 2 .8954305 2 2zm-34.31-12-1.28 1.37c-.3666957.39030942-.874608.61724897-1.41.63h-7.9c-.5528207.00080487-1.081318-.2272453-1.46-.63l-1.33-1.37zm6.31 56h-26c-1.1045695 0-2-.8954305-2-2v-1.56c.60399287.3635516 1.29504012.5570448 2 .56h26c.7049599-.0029552 1.3960071-.1964484 2-.56v1.56c0 1.1045695-.8954305 2-2 2zm2-7c0 1.1045695-.8954305 2-2 2h-26c-1.1045695 0-2-.8954305-2-2v-47c0-1.1045695.8954305-2 2-2h3.57l2.56 2.74c.7573641.8055094 1.8143585 1.26160975 2.92 1.26h7.95c1.1056415.00160975 2.1626359-.4544906 2.92-1.26l2.51-2.74h3.57c1.1045695 0 2 .8954305 2 2v6h-20c-2.209139 0-4 1.790861-4 4v30c0 2.209139 1.790861 4 4 4h20zm24-5h-44c-1.1045695 0-2-.8954305-2-2v-24h48v24c0 1.1045695-.8954305 2-2 2z"/><circle id="Oval" cx="13" cy="15" r="1"/><circle id="Oval" cx="17" cy="15" r="1"/><circle id="Oval" cx="21" cy="15" r="1"/><path id="Shape" d="m37 16h18c.5522847 0 1-.4477153 1-1s-.4477153-1-1-1h-18c-.5522847 0-1 .4477153-1 1s.4477153 1 1 1z"/><path id="Shape" d="m24 22h-10c-1.1045695 0-2 .8954305-2 2v6c0 1.1045695.8954305 2 2 2h10c1.1045695 0 2-.8954305 2-2v-6c0-1.1045695-.8954305-2-2-2zm-10 8v-6h10v6z"/><path id="Shape" d="m24 34h-10c-1.1045695 0-2 .8954305-2 2v6c0 1.1045695.8954305 2 2 2h10c1.1045695 0 2-.8954305 2-2v-6c0-1.1045695-.8954305-2-2-2zm-10 8v-6h10v6z"/><path id="Shape" d="m29 25h2c.5522847 0 1-.4477153 1-1s-.4477153-1-1-1h-2c-.5522847 0-1 .4477153-1 1s.4477153 1 1 1z"/><path id="Shape" d="m35 25h8c.5522847 0 1-.4477153 1-1s-.4477153-1-1-1h-8c-.5522847 0-1 .4477153-1 1s.4477153 1 1 1z"/><path id="Shape" d="m52 27h-23c-.5522847 0-1 .4477153-1 1s.4477153 1 1 1h23c.5522847 0 1-.4477153 1-1s-.4477153-1-1-1z"/><path id="Shape" d="m29 37h2c.5522847 0 1-.4477153 1-1s-.4477153-1-1-1h-2c-.5522847 0-1 .4477153-1 1s.4477153 1 1 1z"/><path id="Shape" d="m43 37c.5522847 0 1-.4477153 1-1s-.4477153-1-1-1h-8c-.5522847 0-1 .4477153-1 1s.4477153 1 1 1z"/><path id="Shape" d="m52 39h-23c-.5522847 0-1 .4477153-1 1s.4477153 1 1 1h23c.5522847 0 1-.4477153 1-1s-.4477153-1-1-1z"/></g></g></svg>