<svg id="outline" height="512" viewBox="0 0 512 512" width="512" xmlns="http://www.w3.org/2000/svg"><path d="m24 448h464a8.00008 8.00008 0 0 0 8-8v-176a8.0005 8.0005 0 0 0 -6.68457-7.8916l-160-26.667-2.63086 15.7832 153.31543 25.55274v9.22266h-448v-72h71.33789l71.34668 11.8916 2.63086-15.7832-72-12a8.02693 8.02693 0 0 0 -1.31543-.1084h-80a8.00008 8.00008 0 0 0 -8 8v240a8.00008 8.00008 0 0 0 8 8zm48-16v-96h24v96zm40 0v-96h24v96zm368 0h-328v-104a8.00008 8.00008 0 0 0 -8-8h-80a8.00008 8.00008 0 0 0 -8 8v104h-24v-136h448z"/><path d="m176 408h280a8.00008 8.00008 0 0 0 8-8v-72a8.00008 8.00008 0 0 0 -8-8h-280a8.00008 8.00008 0 0 0 -8 8v72a8.00008 8.00008 0 0 0 8 8zm136-16h-64v-56h64zm16-56h64v56h-64zm120 56h-40v-56h40zm-264-56h48v56h-48z"/><path d="m256 256a72 72 0 1 0 -72-72 72.08124 72.08124 0 0 0 72 72zm0-128a56 56 0 1 1 -56 56 56.06322 56.06322 0 0 1 56-56z"/><path d="m256 192h32v-16h-24v-32h-16v40a8.00008 8.00008 0 0 0 8 8z"/><path d="m248 72h16v24h-16z"/><path d="m177.289 101.289h16v24h-16z" transform="matrix(.707 -.707 .707 .707 -25.835 164.21)"/><path d="m314.711 105.289h24v16h-24z" transform="matrix(.707 -.707 .707 .707 15.586 264.205)"/><path d="m144 168h24v16h-24z"/><path d="m344 168h24v16h-24z"/></svg>