<svg id="Capa_1" enable-background="new 0 0 509.052 509.052" height="512" viewBox="0 0 509.052 509.052" width="512" xmlns="http://www.w3.org/2000/svg"><g><path d="m417.234 398.952c1.426-1.694 2.029-3.931 1.65-6.112-3.608-20.75-14.494-39.743-30.653-53.478-16.352-13.9-37.163-21.555-58.601-21.555h-264.519c-4.142 0-7.5 3.358-7.5 7.5v68.818c0 4.142 3.357 7.5 7.5 7.5h346.384c2.214-.001 4.315-.979 5.739-2.673zm-344.623-12.328v-53.818h257.02c33.8 0 62.951 22.156 72.409 53.818z"/><path d="m501.552 83.577h-19.875c-2.685-8.59-10.715-14.841-20.178-14.841h-75.869c-4.143 0-7.5 3.358-7.5 7.5s3.357 7.5 7.5 7.5h75.869c3.383 0 6.136 2.752 6.136 6.135v38.181c0 3.383-2.753 6.135-6.136 6.135h-14.085v-18.254c0-4.142-3.357-7.5-7.5-7.5s-7.5 3.358-7.5 7.5v18.254h-21.366v-18.254c0-4.142-3.358-7.5-7.5-7.5-4.143 0-7.5 3.358-7.5 7.5v18.254h-21.367v-18.254c0-4.142-3.357-7.5-7.5-7.5s-7.5 3.358-7.5 7.5v18.254h-8.974c-4.116 0-8.185.238-12.207.653v-51.104h17.13c4.143 0 7.5-3.358 7.5-7.5s-3.357-7.5-7.5-7.5h-80.347c-34.299 0-66.796 14.916-89.157 40.922l-145.71 169.457h-1.4c-21.514 0-39.016 17.502-39.016 39.016v114.685c0 4.142 3.357 7.5 7.5 7.5h93.789c4.143 0 7.5-3.358 7.5-7.5s-3.357-7.5-7.5-7.5h-86.289v-107.185c0-13.242 10.773-24.016 24.016-24.016h303.066c66.675 0 120.918 54.244 120.918 120.918v10.283h-331.711c-4.143 0-7.5 3.358-7.5 7.5s3.357 7.5 7.5 7.5h339.211c4.143 0 7.5-3.358 7.5-7.5v-17.783c0-74.945-60.973-135.918-135.918-135.918h-103.952l13.056-52.223c11.437-45.752 52.362-77.705 99.521-77.705h110.792c9.527 0 17.594-6.338 20.225-15.017h19.828c4.143 0 7.5-3.358 7.5-7.5v-35.593c0-4.142-3.358-7.5-7.5-7.5zm-264.919 139.677-13.883 55.531c-.027.11-.042.22-.065.33h-162.488l137.302-159.678c19.51-22.688 47.86-35.701 77.784-35.701h48.217v53.607c0 .011.002.023.002.034-42.027 9.949-76.021 42.487-86.869 85.877zm257.419-104.084h-11.417v-20.593h11.417z"/></g></svg>