<svg id="Capa_1" enable-background="new 0 0 512 512" height="512" viewBox="0 0 512 512" width="512" xmlns="http://www.w3.org/2000/svg"><g><path d="m511.98 462.52c-.382-13.391-6.099-25.676-16.096-34.592l-11.891-10.605c-3.09-2.756-7.832-2.487-10.589.605-2.757 3.091-2.486 7.833.605 10.589l11.891 10.605c6.886 6.142 10.823 14.603 11.086 23.826s-3.185 17.896-9.709 24.42c-12.103 12.735-35.929 13.135-48.247-1.377l-48.409-54.277 41.001-41.001 16.144 14.399c1.47 1.563 6.917 3.218 10.589-.605 2.757-3.091 2.486-7.833-.605-10.589l-47.598-42.452c2.137-3.288 3.293-7.12 3.293-11.134 0-5.476-2.133-10.624-6.005-14.496l-15.891-15.891c-3.872-3.872-9.02-6.005-14.496-6.005s-10.624 2.133-14.496 6.005l-.881.881-27.165-22.068c20.779-29.768 32.986-65.941 32.986-104.916 0-101.32-82.43-183.75-183.75-183.75-43.213 0-85.225 15.358-118.297 43.244-3.167 2.67-3.569 7.402-.899 10.569 2.671 3.167 7.402 3.569 10.569.899 30.37-25.609 68.948-39.712 108.627-39.712 93.049 0 168.75 75.701 168.75 168.75.23 91.916-75.149 168.828-168.75 168.75-93.046-.001-168.747-75.702-168.747-168.751 0-38.416 12.63-74.632 36.525-104.733 2.576-3.244 2.033-7.962-1.211-10.537-3.246-2.575-7.962-2.034-10.537 1.211-26.023 32.781-39.777 72.222-39.777 114.059 0 101.32 82.43 183.75 183.75 183.75 38.975 0 75.148-12.208 104.916-32.986l22.068 27.164-.79.79c-3.872 3.872-6.005 9.02-6.005 14.496s2.133 10.624 6.005 14.496l15.891 15.892c3.997 3.996 9.246 5.994 14.496 5.994 3.838 0 7.672-1.08 11.02-3.217l76.485 85.756c16.958 19.951 51.078 21.779 70.047 2 9.473-9.473 14.479-22.065 14.097-35.456zm-131.359-42.018-18.317-20.537 37.569-37.569 20.537 18.317zm-80-94.97c9.038-7.468 17.351-15.781 24.819-24.819l25.575 20.777-29.617 29.617zm35.821 71.304-15.891-15.891c-1.039-1.039-1.611-2.42-1.611-3.889s.572-2.85 1.611-3.889c0 0 52.524-52.524 52.616-52.615 1.039-1.039 2.419-1.611 3.889-1.611 1.469 0 2.85.572 3.889 1.611l15.891 15.892c1.039 1.039 1.611 2.419 1.611 3.889 0 1.469-.572 2.85-1.611 3.889l-52.615 52.615c-2.145 2.143-5.634 2.144-7.779-.001z"/><path d="m151.293 324.048c10.582 2.44 21.501 3.677 32.457 3.677 79.338 0 143.884-64.546 143.884-143.884s-64.546-143.883-143.884-143.883-143.884 64.546-143.884 143.883c0 52.935 28.955 101.468 75.565 126.66 3.643 1.969 8.193.612 10.164-3.032 1.969-3.644.612-8.194-3.032-10.164-41.757-22.568-67.697-66.045-67.697-113.463 0-71.067 57.817-128.884 128.884-128.884s128.884 57.817 128.884 128.884-57.817 128.883-128.884 128.883c-9.822 0-19.608-1.108-29.086-3.293-4.034-.931-8.063 1.587-8.993 5.623s1.586 8.062 5.622 8.993z"/><path d="m158.75 240.323c-12.407 0-22.5 10.093-22.5 22.5s10.093 22.5 22.477 22.5c11.812.036 36.101.06 50.023 0 12.407 0 22.5-10.093 22.5-22.5s-10.093-22.5-22.5-22.5h-.207v-16.731c0-4.142-3.358-7.5-7.5-7.5s-7.5 3.358-7.5 7.5v24.231c0 4.142 3.358 7.5 7.5 7.5h7.707c4.136 0 7.5 3.364 7.5 7.5s-3.364 7.5-7.533 7.5c-13.5.06-37.679.038-49.967 0-4.136 0-7.5-3.364-7.5-7.5s3.364-7.5 7.5-7.5h8.293c4.142 0 7.5-3.358 7.5-7.5v-58c0-4.142-3.358-7.5-7.5-7.5h-8.293c-4.136 0-7.5-3.364-7.5-7.5s3.364-7.5 7.5-7.5c4.997-.032 28.915.074 27.489-.056 4.046.104 7.305 3.427 7.305 7.498v13.827c0 4.142 3.358 7.5 7.5 7.5s7.5-3.358 7.5-7.5v-13.827c0-12.407-10.093-22.5-22.5-22.5-2.479.142-22.108.024-27.378.059-12.368.045-22.415 10.122-22.415 22.5 0 12.407 10.093 22.5 22.5 22.5h.793v43h-.794z"/><path d="m183.75 140.323c15.991 0 29-13.009 29-29s-13.009-29-29-29-29 13.009-29 29 13.009 29 29 29zm0-43c7.72 0 14 6.28 14 14s-6.28 14-14 14-14-6.28-14-14 6.28-14 14-14z"/></g></svg>